<?xml version="1.0" encoding="UTF-8" standalone="no"?>
<svg
   id="b553d18a-ef41-49ec-add9-245f590c86f0"
   data-name="Layer 1"
   width="748.18701"
   height="800"
   viewBox="0 0 748.187 799.99999"
   version="1.1"
   sodipodi:docname="undraw_different_love_a3rg.svg"
   inkscape:version="1.1.2 (0a00cf5339, 2022-02-04)"
   xmlns:inkscape="http://www.inkscape.org/namespaces/inkscape"
   xmlns:sodipodi="http://sodipodi.sourceforge.net/DTD/sodipodi-0.dtd"
   xmlns="http://www.w3.org/2000/svg"
   xmlns:svg="http://www.w3.org/2000/svg"
   xmlns:rdf="http://www.w3.org/1999/02/22-rdf-syntax-ns#"
   xmlns:cc="http://creativecommons.org/ns#"
   xmlns:dc="http://purl.org/dc/elements/1.1/">
  <defs
     id="defs114" />
  <sodipodi:namedview
     id="namedview112"
     pagecolor="#ffffff"
     bordercolor="#666666"
     borderopacity="1.0"
     inkscape:pageshadow="2"
     inkscape:pageopacity="0.0"
     inkscape:pagecheckerboard="0"
     showgrid="false"
     inkscape:zoom="0.52857225"
     inkscape:cx="372.70212"
     inkscape:cy="398.24262"
     inkscape:window-width="1920"
     inkscape:window-height="1007"
     inkscape:window-x="0"
     inkscape:window-y="0"
     inkscape:window-maximized="1"
     inkscape:current-layer="b553d18a-ef41-49ec-add9-245f590c86f0"
     width="748.187px" />
  <title
     id="title2">different love</title>
  <g
     id="g930"
     transform="scale(1.0020327)">
    <circle
       cx="399.34531"
       cy="347"
       r="347"
       fill="#f2f2f2"
       id="circle4"
       style="fill:#f2f2f2;fill-opacity:1" />
    <g
       id="f9f9bcf5-f65d-4586-b32b-ca2676d797c4"
       data-name="ground">
      <path
         d="m 973.02518,707.67834 c 0,7.12408 -161.70573,45.73381 -361.17986,45.73381 -199.47413,0 -361.17985,-38.60973 -361.17985,-45.73381 0,-7.12408 161.70573,4.69066 361.17985,4.69066 199.47412,0 361.17986,-11.81474 361.17986,-4.69066 z"
         transform="translate(-226.66547,-50.81143)"
         fill="#3f3d56"
         id="path6" />
      <path
         d="m 973.02518,707.67834 c 0,7.12408 -161.70573,45.73381 -361.17986,45.73381 -199.47413,0 -361.17985,-38.60973 -361.17985,-45.73381 0,-7.12408 161.70573,4.69066 361.17985,4.69066 199.47412,0 361.17986,-11.81474 361.17986,-4.69066 z"
         transform="translate(-226.66547,-50.81143)"
         opacity="0.1"
         id="path8" />
      <ellipse
         cx="385.17987"
         cy="656.86688"
         rx="361.17987"
         ry="12.89928"
         fill="#3f3d56"
         id="ellipse10" />
    </g>
    <line
       x1="730.25177"
       y1="653.34894"
       x2="730.25177"
       y2="537.25537"
       fill="#3f3d56"
       stroke="#3f3d56"
       stroke-miterlimit="10"
       stroke-width="2"
       id="line13" />
    <circle
       cx="730.25177"
       cy="537.25537"
       r="16.417271"
       fill="#3f3d56"
       id="circle15" />
    <path
       d="m 956.91727,659.61767 c 0,0 -2.34533,-50.44293 -50.42446,-44.57962"
       transform="translate(-226.66547,-50.81143)"
       fill="#3f3d56"
       id="path17" />
    <line
       x1="66.841728"
       y1="662.0036"
       x2="66.841728"
       y2="280"
       fill="#3f3d56"
       stroke="#3f3d56"
       stroke-miterlimit="10"
       stroke-width="2"
       id="line19" />
    <circle
       cx="66.841728"
       cy="279.81656"
       r="16.417271"
       fill="#3f3d56"
       id="circle21" />
    <circle
       cx="16.417271"
       cy="559.98199"
       r="16.417271"
       fill="#3f3d56"
       id="circle23" />
    <path
       d="m 293.50719,414.48817 c 0,0 -2.34532,-50.44292 -50.42446,-44.57961"
       transform="translate(-226.66547,-50.81143)"
       fill="#3f3d56"
       id="path25" />
    <path
       d="m 293.50719,557.48817 c 0,0 -2.34532,-50.44292 -50.42446,-44.57961"
       transform="translate(-226.66547,-50.81143)"
       fill="#3f3d56"
       id="path27" />
    <path
       d="m 293.50719,708.30226 c 0,0 10.554,-92.81816 -50.42446,-97.50881"
       transform="translate(-226.66547,-50.81143)"
       fill="none"
       stroke="#3f3d56"
       stroke-miterlimit="10"
       stroke-width="2"
       id="path29" />
    <circle
       cx="117.27338"
       cy="559.98199"
       r="16.417271"
       fill="#3f3d56"
       id="circle31" />
    <path
       d="m 293.51439,708.30226 c 0,0 -10.554,-92.81816 50.42446,-97.50881"
       transform="translate(-226.66547,-50.81143)"
       fill="none"
       stroke="#3f3d56"
       stroke-miterlimit="10"
       stroke-width="2"
       id="path33" />
    <circle
       cx="118.27338"
       cy="405.98203"
       r="16.417271"
       fill="#3f3d56"
       id="circle35" />
    <path
       d="m 294.51439,554.30226 c 0,0 -10.554,-92.81816 50.42446,-97.50881"
       transform="translate(-226.66547,-50.81143)"
       fill="none"
       stroke="#3f3d56"
       stroke-miterlimit="10"
       stroke-width="2"
       id="path37" />
    <line
       x1="603.97839"
       y1="651.0036"
       x2="603.97839"
       y2="418.81656"
       fill="#3f3d56"
       stroke="#3f3d56"
       stroke-miterlimit="10"
       stroke-width="2"
       id="line39" />
    <circle
       cx="603.97839"
       cy="418.81656"
       r="16.417271"
       fill="#3f3d56"
       id="circle41" />
    <path
       d="m 830.64388,536.48817 c 0,0 2.34533,-50.44292 50.42447,-44.57961"
       transform="translate(-226.66547,-50.81143)"
       fill="#3f3d56"
       id="path43" />
    <path
       d="m 830.64388,697.30226 c 0,0 -10.55395,-92.81816 50.42447,-97.50881"
       transform="translate(-226.66547,-50.81143)"
       fill="none"
       stroke="#3f3d56"
       stroke-miterlimit="10"
       stroke-width="2"
       id="path45" />
    <circle
       cx="654.40289"
       cy="548.98199"
       r="16.417271"
       fill="#3f3d56"
       id="circle47" />
    <circle
       cx="584.34534"
       cy="178"
       r="64"
       fill="#ff6584"
       id="circle49" />
    <circle
       cx="478.74191"
       cy="543.9364"
       r="79"
       fill="#2f2e41"
       id="circle51" />
    <rect
       x="717.40741"
       y="656.7478"
       width="24"
       height="43"
       transform="rotate(180,616.07464,652.84212)"
       fill="#2f2e41"
       id="rect53" />
    <rect
       x="669.40741"
       y="656.7478"
       width="24"
       height="43"
       transform="rotate(180,568.07464,652.84212)"
       fill="#2f2e41"
       id="rect55" />
    <ellipse
       cx="676.40741"
       cy="704.2478"
       rx="20"
       ry="7.5"
       transform="rotate(-30,468.25921,1101.8056)"
       fill="#2f2e41"
       id="ellipse57" />
    <ellipse
       cx="723.40741"
       cy="704.2478"
       rx="20"
       ry="7.5"
       transform="rotate(-30,515.25921,1101.8056)"
       fill="#2f2e41"
       id="ellipse59" />
    <circle
       cx="476.74191"
       cy="523.9364"
       r="27"
       fill="#ffffff"
       id="circle61" />
    <circle
       cx="467.54645"
       cy="512.4364"
       r="9"
       fill="#3f3d56"
       id="circle63" />
    <path
       d="m 782.04,521.28011 c 6.37889,-28.56758 -14.01185,-57.43392 -45.544,-64.47477 -31.53215,-7.04085 -62.2651,10.41 -68.644,38.9776 -6.3789,28.5676 14.51861,39.10379 46.05075,46.14464 31.53214,7.04085 61.75841,7.92011 68.13725,-20.64747 z"
       transform="translate(-226.66547,-50.81143)"
       fill="#4ea685"
       id="path65"
       style="fill:#1188ff;fill-opacity:1" />
    <ellipse
       cx="636.19226"
       cy="567.59149"
       rx="12.40027"
       ry="39.5"
       transform="rotate(-66.82884,484.35079,713.96978)"
       fill="#2f2e41"
       id="ellipse67" />
    <ellipse
       cx="784.19226"
       cy="620.59149"
       rx="12.40027"
       ry="39.5"
       transform="rotate(-66.82884,632.35079,766.96978)"
       fill="#2f2e41"
       id="ellipse69" />
    <path
       d="m 721.21193,629.24783 a 18,18 0 0 1 -36,0 c 0,-9.94113 8.05887,-12 18,-12 9.94113,0 18,2.05887 18,12 z"
       transform="translate(-226.66547,-50.81143)"
       fill="#ffffff"
       id="path71" />
    <line
       x1="384.58273"
       y1="520.34894"
       x2="384.58273"
       y2="404.2554"
       fill="none"
       stroke="#4ea685"
       stroke-miterlimit="10"
       stroke-width="2"
       id="line73"
       style="stroke:#1188ff;stroke-opacity:1" />
    <circle
       cx="384.58273"
       cy="404.2554"
       r="16.417271"
       fill="#4ea685"
       id="circle75"
       style="fill:#1188ff;fill-opacity:1" />
    <path
       d="m 611.2482,526.61767 c 0,0 -2.34532,-50.44293 -50.42446,-44.57962"
       transform="translate(-226.66547,-50.81143)"
       fill="#4ea685"
       id="path77"
       style="fill:#1188ff;fill-opacity:1" />
    <path
       d="m 456.89809,491.67283 6.36377,15 h 5.63623 l -8,-38 c 0,-24.39074 -11.77246,-45 -36.16333,-45 h -2.5e-4 a 30.83661,30.83661 0 0 0 -30.83642,30.83655 v 37.26782 a 14.89557,14.89557 0 0 0 14.89551,14.89563 h 43.72949 z"
       transform="translate(-226.66547,-50.81143)"
       fill="#2f2e41"
       id="path79" />
    <path
       d="m 483.51079,642.5219 c 0,0 83,-10 93,8 10,18 3,33 -10,42 -13,9 -85,50 -85,50 l -6,10 -13,-2 -13,-12 6,-11 c 0,0 50,-30 51,-38 0,0 -46,21 -51,17 -5,-4 -61,-23 -52,-34 9,-11 32,-27 32,-27 z"
       transform="translate(-226.66547,-50.81143)"
       fill="#2f2e41"
       id="path81" />
    <path
       d="m 483.51079,642.5219 c 0,0 83,-10 93,8 10,18 3,33 -10,42 -13,9 -85,50 -85,50 l -6,10 -13,-2 -13,-12 6,-11 c 0,0 50,-30 51,-38 0,0 -46,21 -51,17 -5,-4 -61,-23 -52,-34 9,-11 32,-27 32,-27 z"
       transform="translate(-226.66547,-50.81143)"
       opacity="0.1"
       id="path83" />
    <path
       d="m 472.51079,743.5219 c 0,0 15,-3 12,7 -3,10 -5,30 0,35 5,5 21,27 5,29 -16,2 -33,-18 -33,-18 0,0 -11,-32 -19,-35 -8,-3 -16,-15 -12,-18 4,-3 28,-22 30,-21 2,1 1,12 1,12 0,0 8,13 16,9 z"
       transform="translate(-226.66547,-50.81143)"
       fill="#2f2e41"
       id="path85" />
    <path
       d="m 474.01079,530.0219 37,26 c 0,0 28,-29 28,-46 0,-17 15,-49 22,-36 7,13 -8,44 -8,44 l -28,66 c 0,0 -16,3 -25,-4 -9,-7 -34,-21 -34,-21 z"
       transform="translate(-226.66547,-50.81143)"
       fill="#ffb9b9"
       id="path87" />
    <circle
       cx="210.84532"
       cy="407.71045"
       r="28"
       fill="#ffb9b9"
       id="circle89" />
    <path
       d="m 452.01079,478.0219 c 0,0 -10,26 -6,32 4,6 9,6 13,8 2,1 23,9 23,15 a 23.864,23.864 0 0 1 -3,11 l -3,17 -25,16 -33,-4 -25,-14 c 0,0 -4,-37 7,-43 11,-6 24,-20 23,-25 -1,-5 -2,-17 -2,-17 z"
       transform="translate(-226.66547,-50.81143)"
       fill="#ffb9b9"
       id="path91" />
    <path
       d="m 494.01079,540.0219 c 0,0 -15,15 -15,17 0,2 10,11 3,23 -7,12 -7,42 -7,42 l -24,5 -45,-4 -7,-69 c 0,0 18,3 22,6 4,3 15,-4 23,-4 8,0 31,-4 31,-4 l -2,-8 8,-14 z"
       transform="translate(-226.66547,-50.81143)"
       fill="#4ea685"
       id="path93"
       style="fill:#1188ff;fill-opacity:1" />
    <path
       d="M 497.51079,646.5219"
       transform="translate(-226.66547,-50.81143)"
       fill="none"
       stroke="#ffb9b9"
       stroke-miterlimit="10"
       id="path95" />
    <path
       d="m 437.51079,646.5219 c 0,0 101,-45 109,-16 8,29 9,99 9,99 0,0 5,48 11,53 6,5 0,20 0,20 l -15,5 -14,-6 -6,-16 c 0,0 -2,-36 -10,-54 -8,-18 -8,-60 -7,-62 0,0 -39,48 -77,45 -38,-3 -43.5,-11.5 -43.5,-11.5 0,0 18.5,-56.5 43.5,-56.5 z"
       transform="translate(-226.66547,-50.81143)"
       fill="#2f2e41"
       id="path97" />
    <path
       d="m 560.51079,787.5219 c 0,0 4,-14 13,-3 9,11 50,28 51,30 1,2 19,13 -2,28 -21,15 -49,0 -49,0 0,0 -24,-8 -30,-7 -6,1 -18,-5 -19,-10 -1,-5 1.36221,-48.95582 6.6811,-44.47791 5.31889,4.47791 11.3189,16.47791 11.3189,16.47791 0,0 20,5 18,-10 z"
       transform="translate(-226.66547,-50.81143)"
       fill="#2f2e41"
       id="path99" />
    <path
       d="m 471.51079,619.5219 c 0,0 5.5,-0.5 4.5,12.5 0,0 -34.5,10.5 -40.5,19.5 -6,9 -32,36 -36,55 0,0 -29,-7 -13,-57 l 18.81169,-40.78566 c 0,0 11.18831,22.78566 66.18831,10.78566 z"
       transform="translate(-226.66547,-50.81143)"
       fill="#2f2e41"
       id="path101" />
    <path
       d="m 447.97322,643.826 -33.96243,-14.8041 c 0,0 -16,-33 -16,-49 a 246.60333,246.60333 0 0 0 -2.12511,-27.522 35.52824,35.52824 0 0 1 11.56632,-31.14353 c 3.5315,-3.08838 7.49634,-5.33447 11.55884,-5.33447 0,0 12,22 10,42 -2,20 3,50 3,50 l 45.18631,24.18422"
       transform="translate(-226.66547,-50.81143)"
       fill="#ffb9b9"
       id="path103" />
    <path
       d="m 447.97322,643.826 -33.96243,-14.8041 c 0,0 -16,-33 -16,-49 0,-8.33384 35,-33 33,-13 -2,20 1,41 1,41 l 45.18631,24.18422"
       transform="translate(-226.66547,-50.81143)"
       opacity="0.1"
       id="path105" />
    <path
       d="m 432.01079,565.0219 -3.18816,13.5 -17.81184,8.5 h -15 l -7,-32 c 0,0 12.35922,-2.614 18.67961,0.693 6.32039,3.307 21.1626,4.09835 21.1626,4.09835 z"
       transform="translate(-226.66547,-50.81143)"
       fill="#4ea685"
       id="path107"
       style="fill:#1188ff;fill-opacity:1" />
    <path
       d="m 448.601,425.01005 c -5.42529,-1.37518 -18.28906,-1.33722 -20.17139,-1.33722 a 34.53143,34.53143 0 0 0 -34.53149,34.53144 l -13,48.46856 h 25.3042 l 4.6958,-18 6.66675,18 h 12.73828 l 1.095,-10.81653 4.31128,10.81653 h 14.18872 c -10.62647,-24.04406 -16.2793,-45.96063 -2.31812,-59.48785 9.42749,1.28412 17.37866,-1.241 18.67432,-6.35223 1.49265,-5.88892 -6.41095,-12.97297 -17.65335,-15.8227 z"
       transform="translate(-226.66547,-50.81143)"
       fill="#2f2e41"
       id="path109" />
  </g>
  <metadata
     id="metadata931">
    <rdf:RDF>
      <cc:Work
         rdf:about="">
        <dc:title>different love</dc:title>
      </cc:Work>
    </rdf:RDF>
  </metadata>
</svg>
