<?xml version="1.0" encoding="UTF-8" standalone="no"?>
<svg
   id="f2557a61-56ef-4ee7-9811-4cdcc73688e4"
   data-name="Layer 1"
   width="1282.064"
   height="800"
   viewBox="0 0 1282.0639 800.00001"
   version="1.1"
   sodipodi:docname="undraw_creative_team_r90h.svg"
   inkscape:version="1.1.1 (3bf5ae0d25, 2021-09-20, custom)"
   xmlns:inkscape="http://www.inkscape.org/namespaces/inkscape"
   xmlns:sodipodi="http://sodipodi.sourceforge.net/DTD/sodipodi-0.dtd"
   xmlns="http://www.w3.org/2000/svg"
   xmlns:svg="http://www.w3.org/2000/svg"
   xmlns:rdf="http://www.w3.org/1999/02/22-rdf-syntax-ns#"
   xmlns:cc="http://creativecommons.org/ns#"
   xmlns:dc="http://purl.org/dc/elements/1.1/">
  <defs
     id="defs153" />
  <sodipodi:namedview
     id="namedview151"
     pagecolor="#ffffff"
     bordercolor="#666666"
     borderopacity="1.0"
     inkscape:pageshadow="2"
     inkscape:pageopacity="0.0"
     inkscape:pagecheckerboard="0"
     showgrid="false"
     inkscape:zoom="0.40151957"
     inkscape:cx="483.1645"
     inkscape:cy="364.86391"
     inkscape:window-width="1920"
     inkscape:window-height="1007"
     inkscape:window-x="0"
     inkscape:window-y="0"
     inkscape:window-maximized="1"
     inkscape:current-layer="f2557a61-56ef-4ee7-9811-4cdcc73688e4"
     height="700px" />
  <title
     id="title2">creative team</title>
  <g
     id="g968"
     transform="scale(1.1428572,1.1443582)">
    <circle
       cx="852.80585"
       cy="367.99942"
       r="253.99989"
       fill="#f2f2f2"
       id="circle4" />
    <circle
       cx="137.80597"
       cy="97.000031"
       r="97.000031"
       fill="#ff6584"
       id="circle6" />
    <circle
       cx="311.80585"
       cy="266.99942"
       r="253.99989"
       fill="#f2f2f2"
       id="circle8" />
    <ellipse
       cx="299.80594"
       cy="520"
       rx="279"
       ry="15"
       fill="#3f3d56"
       id="ellipse10"
       style="fill:#3b404a;fill-opacity:1" />
    <ellipse
       cx="243.80595"
       cy="520.51721"
       rx="209"
       ry="10.34483"
       opacity="0.1"
       id="ellipse12" />
    <ellipse
       cx="842.80597"
       cy="624.5"
       rx="279"
       ry="16.5"
       fill="#3f3d56"
       id="ellipse14"
       style="fill:#3a404a;fill-opacity:1" />
    <ellipse
       cx="786.80597"
       cy="625.06897"
       rx="209"
       ry="11.37931"
       opacity="0.1"
       id="ellipse16" />
    <ellipse
       cx="400.90298"
       cy="586"
       rx="178.04349"
       ry="9"
       fill="#3f3d56"
       id="ellipse18"
       style="fill:#3a404a;fill-opacity:1" />
    <ellipse
       cx="85.902969"
       cy="556"
       rx="85.902969"
       ry="4.34235"
       fill="#3f3d56"
       id="ellipse20"
       style="fill:#3a404a;fill-opacity:1" />
    <ellipse
       cx="952.92688"
       cy="691"
       rx="159.8791"
       ry="8.0818005"
       fill="#3f3d56"
       id="ellipse22"
       style="fill:#3a404a;fill-opacity:1" />
    <rect
       x="615.80597"
       y="433"
       width="320"
       height="190"
       fill="#3f3d56"
       id="rect24"
       style="fill:#4a505e;fill-opacity:1" />
    <circle
       cx="718.80597"
       cy="530"
       r="72"
       fill="#4ea685"
       id="circle26"
       style="fill:#1188ff;fill-opacity:1" />
    <rect
       x="812.80597"
       y="463"
       width="24"
       height="24"
       fill="#4ea685"
       id="rect28"
       style="fill:#1188ff;fill-opacity:1" />
    <rect
       x="842.80597"
       y="463"
       width="24"
       height="24"
       fill="#4ea685"
       opacity="0.5"
       id="rect30"
       style="fill:#1188ff;fill-opacity:1" />
    <rect
       x="872.80597"
       y="463"
       width="24"
       height="24"
       fill="#4ea685"
       opacity="0.2"
       id="rect32"
       style="fill:#1188ff;fill-opacity:1" />
    <rect
       x="812.80597"
       y="493"
       width="24"
       height="24"
       fill="#2f2e41"
       id="rect34" />
    <rect
       x="842.80597"
       y="493"
       width="24"
       height="24"
       fill="#2f2e41"
       opacity="0.5"
       id="rect36" />
    <rect
       x="872.80597"
       y="493"
       width="24"
       height="24"
       fill="#2f2e41"
       opacity="0.2"
       id="rect38" />
    <rect
       x="812.80597"
       y="523"
       width="24"
       height="24"
       fill="#ff6584"
       id="rect40" />
    <rect
       x="842.80597"
       y="523"
       width="24"
       height="24"
       fill="#ff6584"
       opacity="0.5"
       id="rect42" />
    <rect
       x="872.80597"
       y="523"
       width="24"
       height="24"
       fill="#ff6584"
       opacity="0.2"
       id="rect44" />
    <path
       d="m 757.903,558.4591 v 144 c 39.76453,0 74,-32.23553 74,-72 0,-39.76447 -34.2355,-72 -74,-72 z"
       transform="translate(-39.09703,-100.4591)"
       fill="#3f3d56"
       opacity="0.5"
       id="path46" />
    <path
       d="m 1043.403,546.9591 c 0,0 42,19 27,41 -15,22 -60,64 -61,73 -1,9 -7,17 -7,17 0,0 -20,-21 -18,-23 2,-2 22,-21 23,-26 1,-5 31,-44 31,-44 l -27,-24 z"
       transform="translate(-39.09703,-100.4591)"
       fill="#ffb9b9"
       id="path48" />
    <path
       d="m 1043.403,546.9591 c 0,0 42,19 27,41 -15,22 -60,64 -61,73 -1,9 -7,17 -7,17 0,0 -20,-21 -18,-23 2,-2 22,-21 23,-26 1,-5 31,-44 31,-44 l -27,-24 z"
       transform="translate(-39.09703,-100.4591)"
       opacity="0.1"
       id="path50" />
    <path
       d="m 990.403,588.9591 c 0,0 29,12 27,31 -2,19 35,73 35,73 0,0 4,13 3,17 -1,4 26,3 26,3 v -9 c 0,0 -21,-36 -23,-46 -2,-10 -14,-49 -14,-49 0,0 -4,-35 -24,-35 a 37.5,37.5 0 0 0 -30,15 z"
       transform="translate(-39.09703,-100.4591)"
       fill="#ffb9b9"
       id="path52" />
    <path
       d="m 991.903,498.4591 c 0,0 60,49 58,53 -2,4 -31,19 -36,20 -5,1 -40.37795,-73 -40.37795,-73 z"
       transform="translate(-39.09703,-100.4591)"
       fill="#2f2e41"
       id="path54" />
    <path
       d="m 991.903,498.4591 c 0,0 60,49 58,53 -2,4 -31,19 -36,20 -5,1 -40.37795,-73 -40.37795,-73 z"
       transform="translate(-39.09703,-100.4591)"
       opacity="0.1"
       id="path56" />
    <path
       d="m 926.903,508.4591 c 0,0 -6,27 10,38 16,11 43,54 46,54 3,0 46,-23 44,-27 -2,-4 -24,-39 -24,-39 l -7,-37 c 0,0 -61,-2 -69,11 z"
       transform="translate(-39.09703,-100.4591)"
       fill="#2f2e41"
       id="path58" />
    <path
       d="m 991.903,420.4591 9,58 16,41 c 0,0 24,25 10,27 -14,2 -22,-27 -22,-27 l -13,-24 z"
       transform="translate(-39.09703,-100.4591)"
       fill="#ffb9b9"
       id="path60" />
    <path
       d="m 991.903,420.4591 9,58 16,41 c 0,0 24,25 10,27 -14,2 -22,-27 -22,-27 l -13,-24 z"
       transform="translate(-39.09703,-100.4591)"
       opacity="0.1"
       id="path62" />
    <path
       d="m 958.403,355.9591 c 0,0 0,21 -7,23 -7,2 28,29 28,29 0,0 -4,-35 10,-44 z"
       transform="translate(-39.09703,-100.4591)"
       fill="#ffb9b9"
       id="path64" />
    <path
       d="m 958.403,355.9591 c 0,0 0,21 -7,23 -7,2 28,29 28,29 0,0 -4,-35 10,-44 z"
       transform="translate(-39.09703,-100.4591)"
       opacity="0.1"
       id="path66" />
    <circle
       cx="935.30597"
       cy="249.5"
       r="23"
       fill="#ffb9b9"
       id="circle68" />
    <path
       d="m 975.403,397.9591 c 0,0 -21,-26 -24,-25 -3,1 -25,23 -27,30 -2,7 -6,57 -3,67 3,10 3,36 2,38 -1,2 -7,7 -1,7 6,0 27,-15 41,-12 14,3 33,-1 34,-3 1,-2 -1,-54 0,-58 1,-4 -2,-24 -3,-28 -1,-4 -1,-20 -11,-24 l -4.264,-0.42136 -0.23882,9.89157 z"
       transform="translate(-39.09703,-100.4591)"
       fill="#4ea685"
       id="path70"
       style="fill:#1188ff;fill-opacity:1" />
    <path
       d="m 931.403,449.9591 c 0,0 2,31 17,44 15,13 47,35 49,39 2,4 21,25 25,16 a 14.96181,14.96181 0 0 0 0.8019,-8.86675 22.05314,22.05314 0 0 0 -9.9034,-14.41279 l -8.8985,-5.72046 -44,-46 -2,-24 z"
       transform="translate(-39.09703,-100.4591)"
       fill="#ffb9b9"
       id="path72" />
    <path
       d="m 988.903,651.4591 c 0,0 -11.5,-2.5 -15.5,4.5 -4,7 4,26 4,26 0,0 23,48 27,42 4,-6 -3,-28 -3,-28 0,0 10,-22 6,-23 -4,-1 -18.5,-9.5 -18.5,-21.5 z"
       transform="translate(-39.09703,-100.4591)"
       fill="#2f2e41"
       id="path74" />
    <path
       d="m 1059.403,708.9591 c 0,0 -6,-3 -7,0 -1,3 -7,18 0,20 7,2 76,4 74,0 -2,-4 -13,-9 -20,-11 -7,-2 -25,-17 -25,-17 0,0 -10,13 -22,8 z"
       transform="translate(-39.09703,-100.4591)"
       fill="#2f2e41"
       id="path76" />
    <path
       d="m 997.57221,331.70484 a 6.15938,6.15938 0 0 0 -2.67142,-3.48695 14.13565,14.13565 0 0 0 -0.564,-4.60169 c -1.46952,-4.34444 -4.95079,-4.09542 -8.23546,-6.01618 -1.42509,-0.83335 -1.33707,-1.56988 -2.07894,-2.93864 a 10.90653,10.90653 0 0 0 -4.20254,-4.28786 c -2.10732,-1.34264 -4.3318,-2.72537 -6.82474,-2.8953 -5.239,-0.35709 -9.25573,4.57054 -14.263,6.152 -2.2071,0.697 -4.57869,0.72578 -6.79744,1.38476 -2.21875,0.65898 -4.43236,2.23247 -4.763,4.52325 -0.15265,1.05758 0.11666,2.14252 -0.0382,3.19981 -0.30781,2.10139 -2.15145,3.57314 -3.38563,5.30155 -2.72923,3.82216 -2.41707,9.22181 -0.23451,13.38047 a 18.80958,18.80958 0 0 0 1.57379,2.46278 15.14954,15.14954 0 0 0 1.66167,5.62586 c 2.18256,4.15865 5.93822,7.26624 9.86148,9.84805 a 23.277,23.277 0 0 1 -0.58191,-4.19944 2.89682,2.89682 0 0 1 0.17857,-1.39142 c 0.43691,-0.91332 1.59141,-1.15622 2.47166,-1.65643 1.8232,-1.03606 2.53817,-3.32891 2.59089,-5.42527 0.0527,-2.09636 -0.39154,-4.19618 -0.1719,-6.28163 a 3.43233,3.43233 0 0 1 1.175,-2.52484 4.05855,4.05855 0 0 1 2.21524,-0.52815 c 3.73556,-0.1524 7.63864,-0.221 10.93363,-1.98755 a 16.20347,16.20347 0 0 1 3.40312,-1.7215 c 2.80021,-0.73022 5.66219,1.23245 7.276,3.63455 1.61381,2.4021 2.41844,5.26063 3.90742,7.74207 1.48898,2.48144 4.0613,4.69432 6.94016,4.40032 a 1.15205,1.15205 0 0 0 0.85976,-0.38231 1.28879,1.28879 0 0 0 0.15838,-0.73249 l 0.16085,-11.00458 a 16.63363,16.63363 0 0 0 -0.55496,-5.59324 z"
       transform="translate(-39.09703,-100.4591)"
       fill="#2f2e41"
       id="path78" />
    <path
       d="m 940.403,398.9591 c 0,0 22,10 21,31 -1,21 6,23 -11,25 -17,2 -21,0 -22,2 -1,2 -7,-46 -3,-51 4,-5 15,-7 15,-7 z"
       transform="translate(-39.09703,-100.4591)"
       fill="#4ea685"
       id="path80"
       style="fill:#1188ff;fill-opacity:1" />
    <circle
       cx="458.80594"
       cy="97"
       r="32"
       fill="#2f2e41"
       id="circle82" />
    <path
       d="m 519.403,547.9591 -18,49 c 0,0 -15,12 -6,16 9,4 27,-4 27,-4 l 14,-36 -2,-25 z"
       transform="translate(-39.09703,-100.4591)"
       fill="#2f2e41"
       id="path84" />
    <path
       d="m 519.403,547.9591 -18,49 c 0,0 -15,12 -6,16 9,4 27,-4 27,-4 l 14,-36 -2,-25 z"
       transform="translate(-39.09703,-100.4591)"
       opacity="0.1"
       id="path86" />
    <path
       d="m 520.903,257.4591 15,2 c 0,0 7,55 4,59 -3,4 -18,20 -24,16 -6,-4 5,-77 5,-77 z"
       transform="translate(-39.09703,-100.4591)"
       fill="#575a89"
       id="path88"
       style="fill:#0e72c8;fill-opacity:1" />
    <path
       d="m 377.403,357.9591 c 0,0 -21,9 -25,10 -4,1 -10,11 -3,13 7,2 34,-18 34,-18 z"
       transform="translate(-39.09703,-100.4591)"
       fill="#a0616a"
       id="path90" />
    <path
       d="m 526.403,567.9591 11,41 c 0,0 1,15 6,16 5,1 20,-5 20,-7 0,-2 -6,-18 -6,-18 0,0 0,-12 -6,-17 -6,-5 -11.40551,-21.74959 -11.40551,-21.74959 z"
       transform="translate(-39.09703,-100.4591)"
       fill="#2f2e41"
       id="path92" />
    <path
       d="m 540.403,473.9591 c 2.02,4.71 1.77,38.88 -0.43994,61.62 -1.07007,11.05 -2.60009,19.4 -4.56006,20.38 l -14.33007,-3.58 -5.66993,-1.42 -0.15,-12.44 -0.85,-68.56 -17,-71 v -18 l 43,4 6.82007,10.71 0.17993,0.29 c 0,0 -10,71 -7,78 z"
       transform="translate(-39.09703,-100.4591)"
       fill="#2f2e41"
       id="path94" />
    <path
       d="m 531.403,495.9591 c 2.14,3.21 5.71,22.43 8.56006,39.62 -1.07007,11.05 -2.60009,19.4 -4.56006,20.38 l -14.33007,-3.58 c -0.22,-0.46 -0.43994,-0.94 -0.66993,-1.42 -1.83007,-3.84 -3.55,-8.08 -5.15,-12.44 l -0.85,-68.56 -17,-71 v -18 l 43,4 6.82007,10.71 -39.82007,-2.71 9,39 11,41 c 0,0 0,17 4,23 z"
       transform="translate(-39.09703,-100.4591)"
       opacity="0.1"
       id="path96" />
    <path
       d="m 460.403,340.9591 c 0,0 -14,31 6,74 a 874.08921,874.08921 0 0 1 33,82 c 0,0 7,33 17,54 10,21 8,22 8,22 l 16,-9 c 0,0 -9,-62 -13,-68 -4,-6 -4,-23 -4,-23 l -11,-41 -9,-39 44,3 c 0,0 0,-57 -20,-68 z"
       transform="translate(-39.09703,-100.4591)"
       fill="#2f2e41"
       id="path98" />
    <path
       d="m 476.903,212.4591 c 0,0 0,16 -5,17 -5,1 -15,1 -18,6 -3,5 23,71 23,71 l 27,-17 9,-45 c 0,0 -13,-8 -13,-12 v -18 z"
       transform="translate(-39.09703,-100.4591)"
       fill="#a0616a"
       id="path100" />
    <path
       d="m 476.903,212.4591 c 0,0 0,16 -5,17 -5,1 -15,1 -18,6 -3,5 23,71 23,71 l 27,-17 9,-45 c 0,0 -13,-8 -13,-12 v -18 z"
       transform="translate(-39.09703,-100.4591)"
       opacity="0.1"
       id="path102" />
    <circle
       cx="453.30594"
       cy="105.5"
       r="24"
       fill="#a0616a"
       id="circle104" />
    <path
       d="m 479.903,286.4591 c 0,0 -9,-57 -11,-57 -2,0 -30,6 -32,7 -2,1 -9,10 -9,10 l 14,40 c 0,0 6,28 10,33 4,5 12,19 8,21 -4,2 -8,5 -4,5 4,0 37,-6 39,-3 2,3 35,-11 35,-12 0,-1 -4,-48 -4,-48 l 10,-23 -30,-21 z"
       transform="translate(-39.09703,-100.4591)"
       fill="#575a89"
       id="path106"
       style="fill:#094981;fill-opacity:1" />
    <path
       d="m 437.903,241.4591 -10,5 c 0,0 -28,64 -30,65 -2,1 -12,20 -13,24 -1,4 -3,17 -6,19 a 51.953,51.953 0 0 1 -5,3 c 0,0 6,10 9,10 3,0 13,-14 13,-14 0,0 22,14 28,3 6,-11 21,-81 21,-81 z"
       transform="translate(-39.09703,-100.4591)"
       fill="#575a89"
       id="path108"
       style="fill:#0e72c8;fill-opacity:1" />
    <path
       d="m 516.403,271.9591 c 0,0 -14,-34 -22,-30 -8,4 6,28 15,32 z"
       transform="translate(-39.09703,-100.4591)"
       fill="#a0616a"
       id="path110" />
    <path
       d="m 502.403,272.9591 14.03051,-3.17174 2.96949,15.17174 c 0,0 13,23 10,33 -3,10 -21,26 -27,17 -6,-9 -11,-23 -7,-31 4,-8 10,-27 7,-31 z"
       transform="translate(-39.09703,-100.4591)"
       opacity="0.1"
       id="path112" />
    <path
       d="m 505.403,270.9591 14.03051,-3.17174 2.96949,15.17174 c 0,0 13,23 10,33 -3,10 -21,26 -27,17 -6,-9 -11,-23 -7,-31 4,-8 10,-27 7,-31 z"
       transform="translate(-39.09703,-100.4591)"
       fill="#575a89"
       id="path114"
       style="fill:#0e72c8;fill-opacity:1" />
    <ellipse
       cx="498.90298"
       cy="190.95911"
       rx="11.5"
       ry="24"
       transform="rotate(-64.8987,400.35582,171.47451)"
       fill="#2f2e41"
       id="ellipse116" />
    <circle
       cx="477.80594"
       cy="70"
       r="14"
       fill="#2f2e41"
       id="circle118" />
    <path
       d="m 503.903,165.4591 a 13.99971,13.99971 0 0 1 12.5,-13.91724 14,14 0 1 0 0,27.83448 13.99971,13.99971 0 0 1 -12.5,-13.91724 z"
       transform="translate(-39.09703,-100.4591)"
       fill="#2f2e41"
       id="path120" />
    <rect
       x="64.805946"
       y="277"
       width="350"
       height="243"
       fill="#3f3d56"
       id="rect122"
       style="fill:#434955;fill-opacity:1" />
    <rect
       x="92.805946"
       y="301"
       width="46"
       height="46"
       fill="#f2f2f2"
       id="rect124" />
    <rect
       x="92.805946"
       y="376"
       width="46"
       height="46"
       fill="#4ea685"
       id="rect126"
       style="fill:#1188ff;fill-opacity:1" />
    <rect
       x="92.805946"
       y="451"
       width="46"
       height="46"
       fill="#f2f2f2"
       id="rect128" />
    <rect
       x="160.80595"
       y="315.5"
       width="219"
       height="4"
       fill="#f2f2f2"
       id="rect130" />
    <rect
       x="160.80595"
       y="328.5"
       width="68"
       height="4"
       fill="#f2f2f2"
       id="rect132" />
    <rect
       x="160.80595"
       y="390.5"
       width="219"
       height="4"
       fill="#f2f2f2"
       id="rect134" />
    <rect
       x="160.80595"
       y="403.5"
       width="68"
       height="4"
       fill="#f2f2f2"
       id="rect136" />
    <rect
       x="160.80595"
       y="465.5"
       width="219"
       height="4"
       fill="#f2f2f2"
       id="rect138" />
    <rect
       x="160.80595"
       y="478.5"
       width="68"
       height="4"
       fill="#f2f2f2"
       id="rect140" />
    <path
       d="m 1028.903,769.39173 c 0,20.35636 -12.0999,27.46356 -27.0282,27.46356 -0.3458,0 -0.6916,-0.005 -1.0349,-0.0125 -0.6915,-0.0149 -1.37813,-0.0473 -2.05476,-0.0945 -13.47306,-0.95277 -23.93856,-8.42565 -23.93856,-27.35659 0,-19.58768 25.03064,-44.30737 26.91622,-46.14076 v -0.002 c 0.072,-0.0721 0.1095,-0.107 0.1095,-0.107 0,0 27.0282,25.89637 27.0282,46.25025 z"
       transform="translate(-39.09703,-100.4591)"
       fill="#4ea685"
       id="path142" />
    <path
       d="m 1000.8897,793.74075 9.8858,-13.81138 -9.9107,15.32884 -0.025,1.58462 c -0.6916,-0.0149 -1.37816,-0.0473 -2.05479,-0.0945 l 1.0647,-20.36384 -0.007,-0.1592 0.0174,-0.0274 0.102,-1.92543 -9.93562,-15.36616 9.96547,13.92333 0.0249,0.408 0.8035,-15.38607 -8.50548,-15.8786 8.60998,13.17952 0.8383,-31.90151 v -0.10945 0.107 l -0.1393,25.155 8.4679,-9.97295 -8.5027,12.1397 -0.2239,13.77655 7.9082,-13.22182 -7.9405,15.24924 -0.1244,7.65945 11.4755,-18.40357 -11.5203,21.0753 z"
       transform="translate(-39.09703,-100.4591)"
       fill="#3f3d56"
       id="path144" />
    <path
       d="m 151.903,630.39173 c 0,20.35636 -12.09988,27.46356 -27.02822,27.46356 -0.34578,0 -0.69155,-0.005 -1.03485,-0.0125 -0.69157,-0.0149 -1.37816,-0.0473 -2.05479,-0.0945 -13.47306,-0.95277 -23.93856,-8.42565 -23.93856,-27.35659 0,-19.58768 25.03064,-44.30737 26.91626,-46.14076 l 0.002,-0.002 c 0.0721,-0.0721 0.10945,-0.107 0.10945,-0.107 0,0 27.02822,25.89637 27.02822,46.25025 z"
       transform="translate(-39.09703,-100.4591)"
       fill="#4ea685"
       id="path146" />
    <path
       d="m 123.88966,654.74075 9.88588,-13.81138 -9.91077,15.32884 -0.0249,1.58462 c -0.69157,-0.0149 -1.37816,-0.0473 -2.05479,-0.0945 l 1.0647,-20.36384 -0.007,-0.1592 0.0174,-0.0274 0.102,-1.92543 -9.93562,-15.36616 9.96547,13.92333 0.0249,0.408 0.80351,-15.38607 -8.50525,-15.8786 8.60972,13.17952 0.83834,-31.90151 0.002,-0.10945 v 0.107 l -0.13931,25.155 8.46794,-9.97295 -8.50277,12.1397 -0.22388,13.77655 7.9082,-13.22182 -7.94054,15.24924 -0.12438,7.65945 11.47549,-18.40357 -11.52027,21.0753 z"
       transform="translate(-39.09703,-100.4591)"
       fill="#3f3d56"
       id="path148" />
  </g>
  <metadata
     id="metadata970">
    <rdf:RDF>
      <cc:Work
         rdf:about="">
        <dc:title>creative team</dc:title>
      </cc:Work>
    </rdf:RDF>
  </metadata>
</svg>
